#N canvas 67 23 1150 544 10;
#X obj 439 352 *~;
#X obj 175 216 dac~;
#X obj 775 303 +~ 1000;
#X obj 775 283 *~ 1000;
#X msg 814 327 60;
#X obj 287 70 noise~;
#X obj 734 371 *~;
#N canvas 0 22 175 257 windspeed 0;
#X obj 13 41 +~ 1;
#X obj 12 151 +~;
#X obj 13 64 *~ 0.25;
#X obj 28 129 +~;
#X obj 13 173 clip~ 0 1;
#N canvas 0 22 184 221 squall 0;
#X obj 78 41 noise~;
#X obj 77 108 hip~ 0;
#X obj 78 64 lop~ 3;
#X obj 78 85 lop~ 3;
#X obj 17 112 *~;
#X obj 38 160 *~;
#X obj 16 42 max~ 0.4;
#X obj 16 64 -~ 0.4;
#X obj 16 87 *~ 8;
#X obj 78 129 *~ 20;
#X obj 16 14 inlet~;
#X obj 40 184 outlet~;
#X connect 0 0 2 0;
#X connect 1 0 9 0;
#X connect 2 0 3 0;
#X connect 3 0 1 0;
#X connect 4 0 5 0;
#X connect 5 0 11 0;
#X connect 6 0 7 0;
#X connect 7 0 8 0;
#X connect 8 0 4 0;
#X connect 8 0 4 1;
#X connect 9 0 5 1;
#X connect 10 0 6 0;
#X restore 83 98 pd squall;
#N canvas 0 22 190 244 gust 0;
#X obj 9 15 noise~;
#X obj 8 82 hip~ 0;
#X obj 8 157 *~;
#X obj 76 72 *~;
#X obj 75 49 +~ 0.5;
#X obj 76 96 -~ 0.125;
#X obj 9 59 lop~ 0.5;
#X obj 9 38 lop~ 0.5;
#X obj 9 103 *~ 50;
#X obj 75 9 inlet~;
#X obj 8 182 outlet~;
#X connect 0 0 7 0;
#X connect 1 0 8 0;
#X connect 2 0 10 0;
#X connect 3 0 5 0;
#X connect 4 0 3 0;
#X connect 4 0 3 1;
#X connect 5 0 2 1;
#X connect 6 0 1 0;
#X connect 7 0 6 0;
#X connect 8 0 2 0;
#X connect 9 0 4 0;
#X restore 27 98 pd gust;
#X obj 13 199 outlet~;
#X obj 13 19 osc~ 0.1;
#X connect 0 0 2 0;
#X connect 1 0 4 0;
#X connect 2 0 5 0;
#X connect 2 0 1 0;
#X connect 2 0 6 0;
#X connect 3 0 1 1;
#X connect 4 0 7 0;
#X connect 5 0 3 1;
#X connect 6 0 3 0;
#X connect 8 0 0 0;
#X restore 151 62 pd windspeed;
#X obj 152 135 delwrite~ a 3000;
#X obj 735 347 vcf~ 1000 60;
#X obj 750 303 *~;
#X obj 734 392 *~ 2;
#X obj 734 440 throw~ l;
#X obj 798 440 throw~ r;
#X obj 151 157 catch~ l;
#X obj 215 157 catch~ r;
#X msg 672 278 60;
#X obj 578 370 *~;
#X obj 579 300 vcf~ 1000 60;
#X obj 595 348 *~;
#X obj 672 258 loadbang;
#X obj 578 440 throw~ l;
#X obj 642 440 throw~ r;
#X obj 618 258 *~ 400;
#X obj 618 278 +~ 600;
#X obj 578 415 fcpan 0.28;
#X obj 734 415 fcpan 0.64;
#X obj 287 92 s~ white;
#X obj 735 235 r~ white;
#X obj 578 210 r~ white;
#X obj 578 392 *~ 1.2;
#X obj 594 322 +~ 0.12;
#X obj 863 440 throw~ l;
#X obj 927 440 throw~ r;
#X obj 862 236 r~ white;
#X obj 862 264 max~;
#X obj 862 285 -~;
#X obj 862 307 *~;
#X obj 928 212 sig~ 1;
#X obj 928 236 -~;
#X obj 863 373 *~;
#X obj 946 143 +~ 0.3;
#X obj 993 191 -~ 0.2;
#X obj 945 191 *~ 0.4;
#X obj 862 329 hip~ 200;
#X obj 863 351 lop~ 4000;
#X obj 439 440 throw~ l;
#X obj 504 440 throw~ r;
#X obj 863 415 fcpan 0.71;
#X obj 439 308 r~ white;
#X obj 517 243 cos~;
#X obj 517 177 -~ 0.25;
#X obj 517 155 clip~ 0.25 0.5;
#X obj 517 221 -~ 0.25;
#X obj 517 199 *~ 2;
#X obj 439 330 bp~ 200 40;
#X obj 439 396 *~;
#X obj 517 331 osc~;
#X obj 517 287 *~ 100;
#X obj 517 309 +~ 20;
#X obj 517 265 lop~ 0.1;
#X obj 307 352 *~;
#X obj 307 440 throw~ l;
#X obj 372 440 throw~ r;
#X obj 307 308 r~ white;
#X obj 385 243 cos~;
#X obj 385 221 -~ 0.25;
#X obj 385 199 *~ 2;
#X obj 307 396 *~;
#X obj 385 331 osc~;
#X obj 385 155 clip~ 0.35 0.6;
#X obj 385 177 -~ 0.35;
#X obj 385 265 lop~ 0.5;
#X obj 307 330 bp~ 400 40;
#X obj 385 287 *~ 200;
#X obj 385 309 +~ 30;
#X obj 307 374 *~ 2;
#X obj 439 374 *~ 2;
#X obj 385 133 vd~ a 100;
#X obj 517 133 vd~ a 300;
#X obj 594 231 vd~ a 500;
#X obj 751 256 vd~ a 900;
#X obj 307 418 fcpan 0.91;
#X obj 439 418 fcpan 0.03;
#X obj 150 238 vd~ a 0;
#X obj 167 281 r~ white;
#X obj 173 440 throw~ l;
#X obj 238 440 throw~ r;
#X obj 150 327 *~;
#X obj 173 418 fcpan 0.51;
#X obj 212 345 clip~ 0 0.99;
#X obj 174 373 rzero~;
#X obj 150 260 +~ 0.2;
#X obj 211 323 *~ 0.6;
#X obj 167 302 bp~ 800 1;
#X obj 863 394 *~ 0.8;
#X obj 946 121 vd~ a 3000;
#X obj 946 165 lop~ 0.07;
#X obj 174 395 *~ 0.2;
#X text 181 471 buildings;
#X text 392 471 doorways;
#X text 656 471 branches/wires;
#X text 878 470 tree leaves;
#X obj 216 191 *~ 0.45;
#X obj 152 191 *~ 0.45;
#X floatatom 387 98 5 0 0 0 - - -;
#X obj 390 76 hsl 128 15 0 5 0 1 empty empty empty -2 -8 0 10 -262144
-1 -1 1800 1;
#X text 386 59 volume;
#X obj 152 93 receive~ wind-speed;
#X connect 0 0 77 0;
#X connect 2 0 9 1;
#X connect 3 0 2 0;
#X connect 4 0 9 2;
#X connect 5 0 27 0;
#X connect 6 0 11 0;
#X connect 9 0 6 0;
#X connect 10 0 6 1;
#X connect 11 0 26 0;
#X connect 14 0 104 0;
#X connect 15 0 103 0;
#X connect 16 0 18 2;
#X connect 17 0 30 0;
#X connect 18 0 17 0;
#X connect 19 0 17 1;
#X connect 20 0 16 0;
#X connect 20 0 4 0;
#X connect 23 0 24 0;
#X connect 24 0 18 1;
#X connect 25 0 21 0;
#X connect 25 1 22 0;
#X connect 26 0 12 0;
#X connect 26 1 13 0;
#X connect 28 0 9 0;
#X connect 29 0 18 0;
#X connect 30 0 25 0;
#X connect 31 0 19 0;
#X connect 31 0 19 1;
#X connect 34 0 35 0;
#X connect 35 0 36 0;
#X connect 36 0 37 0;
#X connect 37 0 44 0;
#X connect 38 0 39 0;
#X connect 39 0 35 1;
#X connect 39 0 36 1;
#X connect 39 0 37 1;
#X connect 40 0 95 0;
#X connect 41 0 97 0;
#X connect 42 0 40 1;
#X connect 43 0 39 1;
#X connect 44 0 45 0;
#X connect 45 0 40 0;
#X connect 48 0 32 0;
#X connect 48 1 33 0;
#X connect 49 0 55 0;
#X connect 50 0 60 0;
#X connect 51 0 54 0;
#X connect 52 0 51 0;
#X connect 53 0 50 0;
#X connect 54 0 53 0;
#X connect 55 0 0 0;
#X connect 56 0 83 0;
#X connect 57 0 56 1;
#X connect 58 0 59 0;
#X connect 59 0 57 0;
#X connect 60 0 0 1;
#X connect 60 0 58 0;
#X connect 61 0 76 0;
#X connect 64 0 73 0;
#X connect 65 0 72 0;
#X connect 66 0 65 0;
#X connect 67 0 66 0;
#X connect 68 0 82 0;
#X connect 69 0 68 1;
#X connect 70 0 71 0;
#X connect 71 0 67 0;
#X connect 72 0 61 1;
#X connect 72 0 74 0;
#X connect 73 0 61 0;
#X connect 74 0 75 0;
#X connect 75 0 69 0;
#X connect 76 0 68 0;
#X connect 77 0 56 0;
#X connect 78 0 70 0;
#X connect 79 0 52 0;
#X connect 80 0 23 0;
#X connect 80 0 31 0;
#X connect 81 0 3 0;
#X connect 81 0 10 0;
#X connect 81 0 10 1;
#X connect 82 0 62 0;
#X connect 82 1 63 0;
#X connect 83 0 46 0;
#X connect 83 1 47 0;
#X connect 84 0 92 0;
#X connect 85 0 94 0;
#X connect 88 0 91 0;
#X connect 89 0 86 0;
#X connect 89 1 87 0;
#X connect 90 0 91 1;
#X connect 91 0 98 0;
#X connect 92 0 88 0;
#X connect 92 0 93 0;
#X connect 93 0 90 0;
#X connect 94 0 88 1;
#X connect 95 0 48 0;
#X connect 96 0 41 0;
#X connect 97 0 42 0;
#X connect 97 0 43 0;
#X connect 98 0 89 0;
#X connect 103 0 1 1;
#X connect 104 0 1 0;
#X connect 106 0 103 1;
#X connect 106 0 104 1;
#X connect 106 0 105 0;
#X connect 108 0 8 0;
