#N canvas 19 35 1181 682 12;
#X declare -lib mrpeach;
#X obj 38 7 import mrpeach;
#X obj 37 35 udpreceive 3333;
#X obj 37 64 unpackOSC;
#X obj 38 89 routeOSC /wind;
#X obj 62 115 print wind;
#X floatatom 23 213 20 0 0 0 - - -;
#X floatatom 84 251 10 0 0 0 - - -;
#X floatatom 85 273 10 0 0 0 - - -;
#X floatatom 21 315 10 0 0 0 - - -;
#X floatatom 141 417 10 0 0 0 - - -;
#X floatatom 168 445 10 0 0 0 - - -;
#X floatatom 269 426 10 0 0 0 - - -;
#X floatatom 294 452 10 0 0 0 - - -;
#X floatatom 220 230 10 0 0 0 - - -;
#X obj 39 141 fromsymbol;
#X floatatom 842 282 10 0 0 0 - - -;
#X obj 842 303 sig~;
#X obj 970 410 snapshot~;
#X obj 968 384 metro 50;
#X obj 968 361 tgl 15 0 empty empty empty 17 7 0 10 -262144 -1 -1 0
1;
#X floatatom 971 436 10 0 0 0 - - -;
#X obj 843 352 lop~ 1;
#X obj 896 328 hsl 128 15 0.1 3 0 1 empty empty empty -2 -8 0 10 -262144
-1 -1 5800 1;
#X obj 26 381 hsl 128 15 0 1 0 1 empty empty empty -2 -8 0 10 -262144
-1 -1 9400 1;
#X text 23 357 scaling;
#X floatatom 1028 326 5 0 0 0 - - -;
#X floatatom 159 380 5 0 0 0 - - -;
#X floatatom 104 502 10 0 0 0 - - -;
#X text 102 524 wind speed m/s;
#X obj 76 550 maxlib/scale 0 5 0 1 0;
#X obj 841 246 switch 3;
#X msg 842 205 1;
#X msg 886 205 2;
#X msg 929 203 3;
#N canvas 383 79 450 300 calcWindSpeed 0;
#X floatatom 117 56 10 0 0 0 - - -;
#X floatatom 144 77 10 0 0 0 - - -;
#X obj 98 120 *;
#X obj 140 119 *;
#X obj 118 179 sqrt;
#X obj 117 151 + 0;
#X floatatom 119 211 10 0 0 0 - - -;
#X text 117 229 wind speed m/s;
#X obj 59 28 inlet;
#X obj 217 17 inlet;
#X obj 89 270 outlet;
#X connect 0 0 2 1;
#X connect 0 0 2 0;
#X connect 1 0 3 0;
#X connect 1 0 3 1;
#X connect 2 0 5 0;
#X connect 3 0 5 1;
#X connect 4 0 6 0;
#X connect 5 0 4 0;
#X connect 6 0 10 0;
#X connect 8 0 0 0;
#X connect 9 0 1 0;
#X restore 102 477 pd calcWindSpeed;
#X floatatom 276 506 10 0 0 0 - - -;
#N canvas 383 79 450 300 calcWindSpeed 0;
#X floatatom 117 56 10 0 0 0 - - -;
#X floatatom 144 77 10 0 0 0 - - -;
#X obj 98 120 *;
#X obj 140 119 *;
#X obj 118 179 sqrt;
#X obj 117 151 + 0;
#X floatatom 119 211 10 0 0 0 - - -;
#X text 117 229 wind speed m/s;
#X obj 59 28 inlet;
#X obj 217 17 inlet;
#X obj 89 270 outlet;
#X connect 0 0 2 1;
#X connect 0 0 2 0;
#X connect 1 0 3 0;
#X connect 1 0 3 1;
#X connect 2 0 5 0;
#X connect 3 0 5 1;
#X connect 4 0 6 0;
#X connect 5 0 4 0;
#X connect 6 0 10 0;
#X connect 8 0 0 0;
#X connect 9 0 1 0;
#X restore 274 481 pd calcWindSpeed;
#X obj 277 554 maxlib/scale 0 0.6 0 1 0;
#X text 18 296 sea level pressure;
#X text 87 232 lat/lon;
#X text 21 195 timestamp;
#X obj 79 601 hsl 128 15 0 1 0 1 empty empty empty -2 -8 0 10 -262144
-1 -1 6300 1;
#X text 76 577 scaling;
#X floatatom 212 600 5 0 0 0 - - -;
#X obj 275 600 hsl 128 15 0 1 0 1 empty empty empty -2 -8 0 10 -262144
-1 -1 8500 1;
#X text 272 576 scaling;
#X floatatom 408 599 5 0 0 0 - - -;
#X text 863 173 select source for wind speed data;
#X obj 284 104 threshold 20 1 -5 1;
#X obj 284 131 bng 15 250 50 0 empty empty empty 17 7 0 10 -262144
-1 -1;
#X msg 284 68 -10;
#X obj 396 131 bng 15 250 50 0 empty empty empty 17 7 0 10 -262144
-1 -1;
#X obj 419 188 gate;
#X msg 280 158 1;
#X msg 395 155 0;
#X text 281 49 reset thunder gate;
#X obj 453 70 tgl 15 0 empty empty empty 17 7 0 10 -262144 -1 -1 1
1;
#X obj 435 222 send thunder-trigger;
#X obj 844 411 send~ wind-speed;
#X obj 454 98 metro 40000;
#X floatatom 518 40 12 0 0 0 - - -;
#X obj 449 124 t b b;
#X floatatom 539 98 12 0 0 0 - - -;
#X msg 983 13 0.15;
#X msg 1033 15 1;
#X obj 986 86 prepend set;
#X msg 985 109 /search 32.7688 -117.158;
#X msg 986 44 /rate \$1;
#X obj 897 118 packOSC;
#X msg 725 108 connect 127.0.0.1 3332;
#X obj 898 143 udpsend;
#X msg 723 71 /search \$1 \$2;
#X msg 704 41 32.7688 -117.158;
#X msg 855 43 36.9921 -122.008;
#X text 854 25 Santa Cruz;
#X text 701 23 San Diego;
#X obj 517 69 random 50000;
#X obj 20 340 maxlib/scale 1020 1015 0 1 0;
#X obj 680 91 bng 15 250 50 0 empty empty empty 17 7 0 10 -262144 -1
-1;
#X obj 452 8 loadbang;
#X msg 452 37 1;
#X obj 39 169 unpack 0 f f f f f f f f s;
#X obj 332 256 prepend set;
#X msg 331 279 3/7/2013:10:0:0;
#X obj 26 478 * 2.23694;
#X floatatom 27 509 5 0 0 0 - - -;
#X text 26 528 mph;
#X text 545 438 this program receives wind data from the U.S. Coastal
Observing Research and Development Center (CORDC) at Scripps Institute
of Oceanography It uses it to set the wind speed of Andy Farnell's
wind sound patches from "Designing Sound" Note: the wind speed expected
by the wind patch is between 0 and about 0.7 The data is produced by
a ruby progam called wind-forecast.rb and transmitted via OSC;
#X text 895 307 slew limiter (for smoothing);
#X text 282 528 wind stress kg/m2;
#X text 218 210 precipitation mm;
#X text 183 117 click to force thunder;
#X connect 1 0 2 0;
#X connect 2 0 3 0;
#X connect 3 0 4 0;
#X connect 3 0 14 0;
#X connect 8 0 77 0;
#X connect 9 0 34 0;
#X connect 10 0 34 1;
#X connect 11 0 36 0;
#X connect 12 0 36 1;
#X connect 13 0 48 0;
#X connect 14 0 81 0;
#X connect 15 0 16 0;
#X connect 16 0 21 0;
#X connect 17 0 20 0;
#X connect 18 0 17 0;
#X connect 19 0 18 0;
#X connect 21 0 17 0;
#X connect 21 0 58 0;
#X connect 22 0 21 1;
#X connect 22 0 25 0;
#X connect 23 0 26 0;
#X connect 23 0 77 4;
#X connect 27 0 29 0;
#X connect 27 0 84 0;
#X connect 29 0 30 2;
#X connect 30 0 15 0;
#X connect 31 0 30 0;
#X connect 32 0 30 0;
#X connect 33 0 30 0;
#X connect 34 0 27 0;
#X connect 35 0 37 0;
#X connect 36 0 35 0;
#X connect 37 0 30 3;
#X connect 41 0 43 0;
#X connect 43 0 29 4;
#X connect 44 0 46 0;
#X connect 46 0 37 4;
#X connect 48 0 49 0;
#X connect 48 1 51 0;
#X connect 49 0 53 0;
#X connect 50 0 48 0;
#X connect 51 0 54 0;
#X connect 52 0 57 0;
#X connect 53 0 52 0;
#X connect 54 0 52 0;
#X connect 56 0 59 0;
#X connect 59 0 61 0;
#X connect 60 0 76 1;
#X connect 61 0 76 0;
#X connect 61 1 52 1;
#X connect 63 0 67 0;
#X connect 64 0 67 0;
#X connect 65 0 66 0;
#X connect 67 0 65 0;
#X connect 67 0 68 0;
#X connect 68 0 70 0;
#X connect 69 0 70 0;
#X connect 71 0 68 0;
#X connect 71 0 65 0;
#X connect 71 0 78 0;
#X connect 72 0 71 0;
#X connect 73 0 71 0;
#X connect 76 0 59 1;
#X connect 76 0 62 0;
#X connect 77 0 30 1;
#X connect 78 0 50 0;
#X connect 79 0 80 0;
#X connect 79 0 69 0;
#X connect 79 0 32 0;
#X connect 80 0 56 0;
#X connect 81 0 5 0;
#X connect 81 1 6 0;
#X connect 81 2 7 0;
#X connect 81 3 8 0;
#X connect 81 4 9 0;
#X connect 81 5 10 0;
#X connect 81 6 11 0;
#X connect 81 7 12 0;
#X connect 81 8 13 0;
#X connect 81 9 82 0;
#X connect 82 0 83 0;
#X connect 84 0 85 0;
