#N canvas 19 35 1181 682 12;
#X declare -lib mrpeach;
#X obj 38 7 import mrpeach;
#X obj 37 35 udpreceive 3333;
#X obj 37 64 unpackOSC;
#X obj 38 89 routeOSC /wind;
#X obj 62 115 print wind;
#X floatatom 23 213 20 0 0 0 - - -;
#X floatatom 84 251 10 0 0 0 - - -;
#X floatatom 85 273 10 0 0 0 - - -;
#X floatatom 21 315 10 0 0 0 - - -;
#X floatatom 139 438 10 0 0 0 - - -;
#X floatatom 261 547 10 0 0 0 - - -;
#X floatatom 280 409 10 0 0 0 - - -;
#X floatatom 234 283 10 0 0 0 - - -;
#X floatatom 233 230 10 0 0 0 - - -;
#X obj 39 141 fromsymbol;
#X floatatom 842 282 10 0 0 0 - - -;
#X obj 842 303 sig~;
#X obj 970 410 snapshot~;
#X obj 968 384 metro 50;
#X obj 968 361 tgl 15 0 empty empty empty 17 7 0 10 -262144 -1 -1 0
1;
#X floatatom 971 436 10 0 0 0 - - -;
#X obj 843 352 lop~ 1;
#X obj 896 328 hsl 128 15 0.1 3 0 1 empty empty empty -2 -8 0 10 -262130
-1 -1 4500 1;
#X obj 26 381 hsl 128 15 0 1 0 1 empty empty empty -2 -8 0 10 -4034
-1 -1 9400 1;
#X text 23 357 scaling;
#X floatatom 1028 326 5 0 0 0 - - -;
#X floatatom 159 380 5 0 0 0 - - -;
#X msg 842 205 1;
#X msg 886 205 2;
#X msg 929 203 3;
#X text 18 296 sea level pressure;
#X text 87 232 lat/lon;
#X text 21 195 timestamp;
#X obj 23 542 hsl 128 15 0 1 0 1 empty empty empty -2 -8 0 10 -4032
-1 -1 7500 1;
#X text 20 518 scaling;
#X floatatom 156 541 5 0 0 0 - - -;
#X obj 304 627 hsl 128 15 0 1 0 1 empty empty empty -2 -8 0 10 -204786
-1 -1 8500 1;
#X text 301 603 scaling;
#X floatatom 437 626 5 0 0 0 - - -;
#X text 818 164 select source for wind speed data;
#X obj 284 131 bng 15 250 50 0 empty empty empty 17 7 0 10 -262144
-1 -1;
#X msg 284 68 -10;
#X obj 396 131 bng 15 250 50 0 empty empty empty 17 7 0 10 -262144
-1 -1;
#X obj 419 188 gate;
#X msg 280 158 1;
#X msg 395 155 0;
#X text 281 49 reset thunder gate;
#X obj 453 70 tgl 15 0 empty empty empty 17 7 0 10 -262144 -1 -1 1
1;
#X obj 435 222 send thunder-trigger;
#X obj 844 411 send~ wind-speed;
#X obj 454 98 metro 40000;
#X floatatom 518 40 12 0 0 0 - - -;
#X obj 449 124 t b b;
#X floatatom 539 98 12 0 0 0 - - -;
#X msg 983 13 0.15;
#X msg 1033 15 1;
#X obj 986 86 prepend set;
#X msg 985 109 /city 5.39181e+06;
#X msg 986 44 /rate \$1;
#X obj 897 118 packOSC;
#X msg 725 108 connect 127.0.0.1 3332;
#X obj 898 143 udpsend;
#X text 774 17 Santa Cruz;
#X text 675 12 San Diego;
#X obj 517 69 random 50000;
#X obj 680 91 bng 15 250 50 0 empty empty empty 17 7 0 10 -262144 -1
-1;
#X obj 452 8 loadbang;
#X msg 452 37 1;
#X obj 39 169 unpack 0 f f f f f f f f s;
#X obj 376 260 prepend set;
#X msg 375 283 10/20/2013:9:0:0;
#X text 895 307 slew limiter (for smoothing);
#X text 183 117 click to force thunder;
#X msg 677 35 5.39181e+06;
#X msg 780 38 5.39305e+06;
#X text 601 479 this version uses new data format from openweathermap.org
;
#X text 136 414 wind speed;
#X text 258 528 wind direction;
#X text 277 390 wind gust;
#X text 232 257 rain (3 hour);
#X text 228 209 snow (3 hour);
#X obj 284 104 threshold 0.05 1 -5 1;
#X obj 306 581 maxlib/scale 0 360 0 1 0;
#X obj 20 340 maxlib/scale 1000 970 0 1 0;
#X obj 20 491 maxlib/scale 0 10 0 1 0;
#X floatatom 45 459 5 0 0 0 - - -;
#X text 41 438 wind max;
#X msg 723 71 /city \$1;
#X text 870 17 Rumford \, ME;
#X msg 876 38 4.97712e+06;
#X text 275 316 This new method from OWM is using 7 day forecast instead
of 3 day data \, and the transitions in wind speed are much jumpier
- need to try to find more detailed data - I have reduced the slew
rate to below one \, instead of 1.5;
#X text 600 520 comments from old version: this program receives wind
data from the U.S. Coastal Observing Research and Development Center
(CORDC) at Scripps Institute of Oceanography It uses it to set the
wind speed of Andy Farnell's wind sound patches from "Designing Sound"
Note: the wind speed expected by the wind patch is between 0 and about
0.7 The data is produced by a ruby progam called wind-forecast.rb and
transmitted via OSC;
#X obj 351 494 hsl 128 15 0 1 0 1 empty empty empty -2 -8 0 10 -232576
-1 -1 7500 1;
#X text 348 470 scaling;
#X floatatom 484 493 5 0 0 0 - - -;
#X obj 348 443 maxlib/scale 0 10 0 1 0;
#X floatatom 373 411 5 0 0 0 - - -;
#X msg 1011 201 4;
#X obj 841 246 switch 4;
#X text 369 390 wind gust max;
#X text 1010 181 gust;
#X text 924 181 direction;
#X text 879 183 speed;
#X text 815 183 pressure;
#X connect 1 0 2 0;
#X connect 2 0 3 0;
#X connect 3 0 4 0;
#X connect 3 0 14 0;
#X connect 8 0 83 0;
#X connect 9 0 84 0;
#X connect 10 0 82 0;
#X connect 11 0 95 0;
#X connect 12 0 81 0;
#X connect 13 0 81 0;
#X connect 14 0 68 0;
#X connect 15 0 16 0;
#X connect 16 0 21 0;
#X connect 17 0 20 0;
#X connect 18 0 17 0;
#X connect 19 0 18 0;
#X connect 21 0 17 0;
#X connect 21 0 49 0;
#X connect 22 0 21 1;
#X connect 22 0 25 0;
#X connect 23 0 26 0;
#X connect 23 0 83 4;
#X connect 27 0 98 0;
#X connect 28 0 98 0;
#X connect 29 0 98 0;
#X connect 33 0 35 0;
#X connect 35 0 84 4;
#X connect 36 0 38 0;
#X connect 38 0 82 4;
#X connect 40 0 44 0;
#X connect 41 0 81 0;
#X connect 42 0 45 0;
#X connect 43 0 48 0;
#X connect 44 0 43 0;
#X connect 45 0 43 0;
#X connect 47 0 50 0;
#X connect 50 0 52 0;
#X connect 51 0 64 1;
#X connect 52 0 64 0;
#X connect 52 1 43 1;
#X connect 54 0 58 0;
#X connect 55 0 58 0;
#X connect 56 0 57 0;
#X connect 58 0 56 0;
#X connect 58 0 59 0;
#X connect 59 0 61 0;
#X connect 60 0 61 0;
#X connect 64 0 50 1;
#X connect 64 0 53 0;
#X connect 65 0 41 0;
#X connect 66 0 67 0;
#X connect 66 0 60 0;
#X connect 66 0 28 0;
#X connect 67 0 47 0;
#X connect 68 0 5 0;
#X connect 68 1 6 0;
#X connect 68 2 7 0;
#X connect 68 3 8 0;
#X connect 68 4 9 0;
#X connect 68 5 10 0;
#X connect 68 6 11 0;
#X connect 68 7 12 0;
#X connect 68 8 13 0;
#X connect 68 9 69 0;
#X connect 69 0 70 0;
#X connect 73 0 87 0;
#X connect 74 0 87 0;
#X connect 81 0 40 0;
#X connect 81 1 42 0;
#X connect 82 0 98 3;
#X connect 83 0 98 1;
#X connect 84 0 98 2;
#X connect 85 0 84 2;
#X connect 87 0 59 0;
#X connect 87 0 56 0;
#X connect 87 0 65 0;
#X connect 89 0 87 0;
#X connect 92 0 94 0;
#X connect 94 0 95 4;
#X connect 95 0 98 4;
#X connect 96 0 95 2;
#X connect 97 0 98 0;
#X connect 98 0 15 0;
